<svg version="1.2" xmlns="http://www.w3.org/2000/svg" viewBox="165 353 1251 412" width="1251" height="412">
	<title>Logo with complete name</title>
	<style>
		tspan { white-space:pre } 
		.s0 { fill: #1e46a1 } 
		.s1 { fill: #0da0b2 } 
	</style>
	<g id="Page 1">
		<path id="Path 1" fill-rule="evenodd" class="s0" d="m986.5 574.5l-3.7 0.6-3.8 0.8-3.7 1.1-3.8 1.3-3.8 1.5-3.7 1.8-3.7 2.1-3.6 2.4-3.6 2.7-3.4 3-3.2 3.2-3 3.6-2.9 3.7-2.5 4-2.4 4.1-2 4.3-1.9 4.3-1.5 4.5-1.3 4.4-1.1 4.5-0.2 1v-1.5l0.1-4.1 0.3-4 0.5-4.1 0.6-4 0.8-3.9 1-4 1.1-3.9 1.4-3.8 1.5-3.8 1.8-3.6 2-3.6 2.2-3.4 2.5-3.2 2.6-3 2.7-2.8 2.9-2.6 3.1-2.3 3.1-2 3.2-1.8 3.2-1.6 3.3-1.4 3.3-1.1 3.3-0.9 3.4-0.7 3.3-0.6 3.4-0.4 3.3-0.2 3.4-0.1 3.4 0.1 2.4 0.1h37.2v-10.6h-37l-2.4-0.1h-3.6l-3.7 0.1-3.8 0.2-3.7 0.5-3.7 0.6-3.8 0.8-3.7 1-3.8 1.3-3.8 1.6-3.7 1.8-3.7 2.1-3.6 2.4-3.6 2.6-3.4 3-3.2 3.3-3 3.5-2.9 3.8-2.6 4-2.3 4.1-2.1 4.3-1.8 4.3-1.5 4.4-1.4 4.5-1.1 4.5-0.2 1 0.1-1.5 0.1-4.1 0.3-4.1 0.5-4 0.6-4 0.8-4 1-3.9 1.1-3.9 1.4-3.8 1.5-3.8 1.8-3.7 2-3.5 2.2-3.4 2.4-3.2 2.6-3.1 2.8-2.7 2.9-2.6 3-2.3 3.1-2.1 3.2-1.8 3.3-1.6 3.3-1.3 3.3-1.1 3.3-0.9 3.4-0.8 3.3-0.5 3.4-0.4 3.3-0.2 3.4-0.1h3.4l2.4 0.1h37.1v-10.5h-36.9l-2.4-0.1-3.7-0.1-3.7 0.2-3.7 0.2-3.7 0.4-3.7 0.6-3.8 0.9-3.8 1-3.7 1.3-3.8 1.5-3.7 1.8-3.7 2.1-3.7 2.4-3.5 2.7-3.4 3-3.2 3.3-3.1 3.5-2.8 3.8-2.6 3.9-2.3 4.2-2.1 4.2-1.8 4.4-1.6 4.4-1.3 4.4-1.1 4.5-0.2 1.1v-1.6l0.2-4 0.3-4.1 0.5-4 0.6-4 0.8-4 0.9-4 1.2-3.8 1.3-3.9 1.6-3.7 1.8-3.7 2-3.6 2.2-3.4 2.4-3.2 2.6-3 2.8-2.8 2.9-2.5 3-2.3 3.1-2.1 3.2-1.8 3.3-1.6 3.3-1.3 3.3-1.1 3.3-1 3.3-0.7 3.4-0.5 3.3-0.4 3.4-0.3 3.4-0.1 3.4 0.1 2.4 0.1h37.1v-10.5h-36.9l-2.4-0.1-3.7-0.1-3.7 0.1-3.7 0.3-3.7 0.4-3.8 0.6-3.7 0.8-3.8 1.1-3.7 1.2-3.8 1.6-3.8 1.8-3.7 2.1-3.6 2.4-3.5 2.7-3.4 3-3.2 3.2-3.1 3.6-2.8 3.7-2.6 4-2.3 4.1-2.1 4.3-1.8 4.3-1.6 4.4-1.3 4.5-1.1 4.5-0.9 4.5-0.7 4.5-0.1 1.4-0.2-1.4-0.7-4.5-0.9-4.5-1.1-4.5-1.3-4.5-1.5-4.4-1.9-4.3-2-4.3-2.4-4.1-2.6-4-2.8-3.7-3-3.6-3.2-3.2-3.4-3-3.6-2.7-3.6-2.4-3.7-2.1-3.7-1.8-3.8-1.6-3.8-1.2-3.8-1.1-3.7-0.8-3.8-0.6-3.7-0.4-3.7-0.3-3.7-0.1-3.7 0.1-2.3 0.1h-37v10.5h37.2l2.4-0.1 3.4-0.1 3.3 0.1 3.4 0.3 3.3 0.4 3.4 0.5 3.3 0.7 3.4 1 3.3 1.1 3.3 1.3 3.2 1.6 3.2 1.8 3.1 2.1 3 2.3 3 2.5 2.7 2.8 2.6 3 2.4 3.2 2.2 3.4 2 3.6 1.8 3.7 1.6 3.7 1.4 3.9 1.1 3.8 1 4 0.8 4 0.6 4 0.4 4 0.3 4.1 0.2 4v1.6l-0.2-1.1-1.1-4.5-1.3-4.4-1.6-4.4-1.8-4.4-2.1-4.2-2.3-4.2-2.6-3.9-2.8-3.8-3-3.5-3.3-3.3-3.4-3-3.5-2.7-3.6-2.4-3.7-2.1-3.8-1.8-3.7-1.5-3.8-1.3-3.8-1-3.7-0.9-3.8-0.6-3.7-0.4-3.7-0.2-3.7-0.2-3.7 0.1-2.4 0.1h-36.9v10.5h37.1l2.5-0.1h3.3l3.4 0.1 3.4 0.2 3.3 0.4 3.4 0.5 3.3 0.8 3.3 0.9 3.4 1.1 3.2 1.3 3.3 1.6 3.2 1.8 3.1 2.1 3 2.3 2.9 2.6 2.8 2.7 2.6 3.1 2.4 3.2 2.2 3.4 2 3.5 1.8 3.7 1.6 3.8 1.3 3.8 1.2 3.9 1 3.9 0.7 4 0.6 4 0.5 4 0.3 4.1 0.2 4.1v1.5l-0.2-1-1.1-4.5-1.3-4.5-1.6-4.4-1.8-4.3-2.1-4.3-2.3-4.1-2.6-4-2.8-3.8-3.1-3.5-3.2-3.3-3.4-3-3.5-2.6-3.6-2.4-3.7-2.1-3.8-1.8-3.8-1.6-3.7-1.3-3.8-1-3.7-0.8-3.8-0.6-3.7-0.5-3.7-0.2-3.7-0.1h-3.7l-2.4 0.1h-36.9v10.6h37.1l2.4-0.1 3.4-0.1 3.4 0.1 3.4 0.2 3.3 0.4 3.4 0.6 3.3 0.7 3.3 0.9 3.3 1.1 3.3 1.4 3.3 1.6 3.2 1.8 3.1 2 3 2.3 2.9 2.6 2.8 2.8 2.6 3 2.4 3.2 2.2 3.4 2 3.6 1.8 3.6 1.6 3.8 1.3 3.8 1.2 3.9 0.9 4 0.8 3.9 0.6 4 0.5 4.1 0.3 4 0.2 4.1v1.5l-0.2-1-1.1-4.5-1.3-4.4-1.6-4.5-1.8-4.3-2.1-4.3-2.3-4.1-2.6-4-2.8-3.7-3.1-3.6-3.2-3.2-3.4-3-3.5-2.7-3.7-2.4-3.7-2.1-3.7-1.8-3.8-1.5-3.7-1.3-3.8-1.1-3.8-0.8-3.7-0.6-3.7-0.4-3.7-0.3-3.7-0.1-3.7 0.1-2.4 0.1h-36.9v10.5h37.1l2.4-0.1h3.4 3.4l3.3 0.3 3.4 0.4 3.3 0.5 3.4 0.7 3.3 1 3.3 1.1 3.3 1.3 3.2 1.6 3.2 1.8 3.2 2.1 3 2.3 2.9 2.5 2.8 2.8 2.6 3 2.4 3.3 2.2 3.4 2 3.5 1.8 3.7 1.5 3.7 1.4 3.9 1.2 3.9 0.9 3.9 0.8 4 0.6 4 0.5 4 0.3 4.1 0.1 4.1 0.1 4.1-0.1 3.2v59.8h56.9v-59.8-3.2-4.1l0.2-4.1 0.3-4.1 0.4-4 0.6-4 0.8-4 1-3.9 1.1-3.9 1.4-3.9 1.6-3.7 1.7-3.7 2-3.5 2.3-3.4 2.4-3.3 2.6-3 2.7-2.8 2.9-2.5 3.1-2.3 3.1-2.1 3.2-1.8 3.2-1.6 3.3-1.3 3.3-1.1 3.4-1 3.3-0.7 3.3-0.5 3.4-0.4 3.4-0.3h3.3 3.4l2.4 0.1h37.2v-10.5h-37l-2.3-0.1-3.7-0.1-3.7 0.1-3.7 0.3z"/>
		<path id="Path 2" fill-rule="evenodd" class="s1" d="m906 393c32.5 0 58.9 26.4 58.9 58.9 0 32.6-26.4 59-58.9 59-32.6 0-59-26.4-59-59 0-32.5 26.4-58.9 59-58.9z"/>
		<path id="Path 3" fill-rule="evenodd" class="s0" d="m216 543h28.4v177.4h-28.4zm139.6 177.3v-109.8c0-4.1-0.5-7.5-1.7-10.3-1.1-2.7-2.6-4.8-4.5-6.4q-2.9-2.4-6.7-3.4c-2.5-0.6-5.2-0.9-8-0.9h-25.9v130.8h-28.2v-151.4h24l2 9.6h0.6q7.1-4.9 15.8-8.2c5.8-2.2 12.2-3.3 19.3-3.3q10.6 0 18.3 3.7c5.3 2.4 9.6 5.5 13 9.5q5.2 6 7.7 13.9c1.7 5.3 2.5 47.4 2.5 126.2zm121 0h-36.2l-40.4-151.4h29.3l27.1 111.3 3.2 14.5h0.6l3.6-14.5 26.3-111.3h27.5zm81.7-70.7c0 9.7 0.7 17.9 2.1 24.4q2.3 9.7 6.6 15.6c2.9 3.9 6.5 6.6 10.8 8.3q6.6 2.4 49.9 2.4v15q-3.4 1.6-8.3 2.9c-3.2 0.9-6.6 1.6-10.1 2.2-3.6 0.6-7.3 1.1-11 1.4-3.6 0.3-7.1 0.4-10.5 0.4-10.2 0-19.1-1.9-26.5-5.8q-11.1-5.8-18.3-16.1c-4.8-7-8.3-15.2-10.6-24.8-2.3-9.6-3.4-20.1-3.4-31.5q0-23.2 5-38.2c3.4-10 7.7-18 13-23.9q8-8.8 17.7-12.3c6.5-2.3 12.9-3.5 19.1-3.5 6.8 0 13.3 1.2 19.5 3.5 6.3 2.3 11.9 6.4 16.7 12.3 4.9 5.9 8.7 13.9 11.7 23.9q4.3 15 4.3 43.8zm47.9-27.1c0-5.7-0.4-10.7-1-15.3-0.7-4.5-1.9-8.4-3.7-11.6q-2.7-4.8-7.3-7.5c-3-1.8-6.8-2.6-11.4-2.6-4.5 0-8.2 0.8-11.3 2.6q-4.5 2.8-7.4 8.4c-1.9 3.7-3.3 8.4-4.1 14.1-0.8 5.8-1.2 12.5-1.2 20.3h47.4zm131.6 97.9v-109.9c0-4.1-0.5-7.5-1.7-10.2-1.1-2.8-2.6-4.9-4.6-6.5q-2.8-2.3-6.6-3.3c-2.6-0.7-5.3-0.9-8-0.9h-25.9v130.8h-28.2v-151.4h24l2 9.5h0.6q7-4.9 15.8-8.2c5.8-2.1 12.2-3.2 19.3-3.2q10.6 0 18.3 3.6c5.2 2.4 9.6 5.6 13 9.6q5.2 6 7.7 13.9c1.6 5.2 2.5 47.3 2.5 126.2zm319.2-70.8c0 9.7 0.7 17.9 2.2 24.4 1.4 6.5 3.6 11.7 6.5 15.6q4.4 5.9 10.9 8.3c4.3 1.7 21 2.4 49.8 2.4v15c-2.2 1.1-5 2.1-8.2 3-3.2 0.8-6.6 1.5-10.2 2.1-3.6 0.6-7.2 1.1-10.9 1.4-3.7 0.3-7.2 0.5-10.6 0.5-10.2 0-19-2-26.5-5.8-7.3-3.9-13.5-9.3-18.3-16.2q-7.2-10.4-10.6-24.8-3.4-14.3-3.3-31.5c0-15.5 1.6-28.2 5-38.2 3.3-10 7.7-18 13-23.9 5.3-5.8 11.2-10 17.7-12.3 6.4-2.3 12.9-3.5 19.1-3.5 6.7 0 13.2 1.2 19.4 3.5 6.3 2.3 11.9 6.5 16.7 12.3 4.9 5.9 8.8 13.9 11.7 23.9q4.3 15 4.3 43.8zm47.9-27.1q0-8.5-1-15.3c-0.7-4.5-1.9-8.4-3.7-11.6q-2.6-4.8-7.2-7.5c-3-1.7-6.9-2.6-11.5-2.6-4.5 0-8.2 0.8-11.2 2.7-3.1 1.8-5.5 4.6-7.4 8.3-1.9 3.7-3.3 8.4-4.1 14.1-0.8 5.8-1.3 12.5-1.3 20.3h47.4zm139.1 92.8c-4.1 1.8-9.3 3.3-15.5 4.7q-9.5 2-21.5 2-10.3 0-19.9-4.4-9.7-4.5-17-13.8c-4.9-6.3-8.8-14.4-11.7-24.2-2.9-9.8-4.3-21.7-4.3-35.6q0-22.2 4.8-37.1c3.2-9.9 7.4-17.9 12.7-24 5.3-6 11.3-10.3 18-12.9 6.7-2.6 13.5-3.8 20.4-3.8q10.5 0 19.1 1.9c5.7 1.2 10.1 2.5 13.3 3.9v16.5h-27.4c-3.9 0-7.8 0.8-11.6 2.4-3.7 1.6-7.1 4.5-10 8.7q-4.4 6.1-6.9 16.8c-1.7 7-2.6 16-2.6 26.8 0 10.3 0.9 19 2.6 26.1q2.5 10.8 7.2 17.5 4.6 6.8 11.1 9.8c4.3 2.1 17.3 3.1 39.2 3.1zm95.8 5v-109.8c0-4.1-0.6-7.5-1.8-10.3q-1.7-4-4.5-6.4c-1.9-1.6-4.2-2.7-6.7-3.4-2.5-0.6-5.2-0.9-8-0.9h-25.9v130.8h-28.1v-190.4h28.1v43h0.6q6.8-3 14.5-4.9c5.1-1.3 11.3-1.9 18.4-1.9 7.1 0 13.2 1.2 18.4 3.6q7.8 3.6 12.9 9.6 5.2 6.1 7.7 14c1.7 5.3 2.6 47.6 2.6 127z"/>
		<text id="" style="transform: matrix(1,0,0,1,201.14,858.79)" >
		</text>
	</g>
</svg>