<?xml version="1.0" encoding="UTF-8" standalone="no"?>
<!DOCTYPE svg PUBLIC "-//W3C//DTD SVG 1.1//EN" "http://www.w3.org/Graphics/SVG/1.1/DTD/svg11.dtd">
<svg width="100%" height="100%" viewBox="0 0 8447 2550" version="1.1" xmlns="http://www.w3.org/2000/svg" xmlns:xlink="http://www.w3.org/1999/xlink" xml:space="preserve" xmlns:serif="http://www.serif.com/" style="fill-rule:evenodd;clip-rule:evenodd;stroke-linejoin:round;stroke-miterlimit:2;">
    <g transform="matrix(5.947993,0,0,5.947993,6.104013,13.104013)">
        <path d="M163.001,238.012C164.967,211.75 145.948,177.586 105.499,177.142C85.92,176.926 31.484,177.704 30.389,176.601C29.742,175.949 29.6,171.97 29.959,169.706C30.22,168.061 30.747,167.876 31.537,167.833C44.634,167.129 99.585,167.765 105.502,167.833C163.858,168.508 169.363,221.287 171.573,221.184C176.536,220.954 168.719,157.649 110.477,155.866C86.149,155.122 29.998,155.897 29.943,154.557C29.901,152.611 30.085,149.512 30.254,147.42C30.372,146.124 31.803,145.892 33.506,146.037C115.114,145.872 138.668,141.174 165.247,172.693C181.022,191.401 183.607,224.865 181.011,200.465C173.068,125.827 107.21,134.374 71.502,134.341C31.354,134.303 30.079,134.772 29.951,132.465C29.916,131.83 28.887,124.961 31.524,124.671C33.641,124.327 101.422,124.597 107.5,124.641C115.156,124.698 169.84,125.1 186.64,178.453C186.995,179.582 189.955,195.503 191.156,185.421C192.231,176.4 206.367,133.173 256.53,125.673C263.49,124.632 269.786,123.69 344.493,124.698C347.54,124.739 347.67,134.302 344.497,134.33C276.996,134.929 238.939,127.675 212.929,159.879C196.657,180.025 198.331,205.467 198.449,205.548C201.663,207.769 199.586,180.381 228.752,158.883C248.827,144.085 265.833,145.797 342.676,145.949C345.931,145.956 346.12,148.517 346.117,149.454C346.11,151.114 345.712,155.706 344.513,155.736C279.192,157.36 240.553,146.27 216.875,184.735C205.861,202.627 205.895,236.552 210.593,214.526C215.473,191.648 240.837,168.192 269.509,167.77C275.645,167.68 344.363,166.659 345.536,168.666C346.398,170.14 346.311,176.298 344.667,177.209C266.627,177.096 247.614,172.545 226.8,200.735C216.833,214.235 214.663,235.376 215.655,238.468C216.286,240.43 238.655,291.113 242.168,300.652C244.702,307.534 245.773,297.996 261.856,264.664C271.102,245.502 293.579,195.162 295.552,194.681C296.335,194.49 331.384,194.508 334.5,194.51C341.242,194.513 340.863,196.069 340.674,196.553C337.942,203.552 262.861,358.243 256.048,372.28C255.145,374.14 250.712,373.689 234.504,373.655C231.202,373.648 231.995,371.969 203.229,314.634C202.748,313.674 202.798,313.703 197.254,302.61C189.709,287.511 189.761,287.361 189.47,287.384C189.07,287.417 189.344,287.737 186.618,291.511C181.833,286.42 183.718,284.984 163.001,238.012Z" style="fill:rgb(1,62,147);"/>
    </g>
    <g transform="matrix(5.947993,0,0,5.947993,6.104013,13.104013)">
        <path d="M163.001,238.012C186.977,282.994 182.942,275.149 189.139,287.644C185.708,294.194 183.964,297.848 149.068,369.269C146.355,374.822 143.121,373.847 127.497,373.659C122.766,372.372 119.247,364.639 119.247,364.639C119.247,364.639 35.542,196.278 37.662,194.763C38.024,194.504 84.028,194.514 84.413,194.721C87.108,196.17 132.95,300.021 134.522,300.035C136.034,300.049 160.824,243.02 163.001,238.012Z" style="fill:rgb(0,162,192);"/>
    </g>
    <g transform="matrix(5.947993,0,0,5.947993,6.104013,13.104013)">
        <path d="M219.587,115.624C162.651,153.667 113.848,72.535 165.717,38.842C204.457,13.677 256.288,56.774 232.182,101.316C227.589,109.804 226.71,109.056 219.587,115.624Z" style="fill:rgb(0,160,190);"/>
    </g>
    <g transform="matrix(24.507184,0,0,24.507184,-56119.521599,-32549.338713)">
        <text x="2371.554px" y="1406.468px" style="font-family:'Poppins-SemiBold', 'Poppins';font-weight:600;font-size:50px;fill:rgb(1,62,147);">ork</text>
        <g transform="matrix(50,0,0,50,2628.954171,1406.468126)">
        </g>
        <text x="2452.854px" y="1406.468px" style="font-family:'Poppins-SemiBold', 'Poppins';font-weight:600;font-size:50px;fill:rgb(0,162,192);">sphere</text>
    </g>
</svg>
