<svg width="93" height="28" viewBox="0 0 93 28" fill="none" xmlns="http://www.w3.org/2000/svg">
<path fill-rule="evenodd" clip-rule="evenodd" d="M10.7126 15.6885C10.841 13.9733 9.5989 11.742 6.95716 11.713C5.67845 11.6989 2.12322 11.7497 2.05171 11.6777C2.00945 11.6351 2.00018 11.3752 2.02362 11.2274C2.04067 11.1199 2.07509 11.1079 2.12668 11.1051C2.98205 11.0591 6.57092 11.1006 6.95736 11.1051C10.7686 11.1491 11.1281 14.5962 11.2725 14.5894C11.5966 14.5744 11.0861 10.4399 7.28228 10.3235C5.69341 10.2749 2.02617 10.3255 2.02258 10.238C2.01983 10.1109 2.03185 9.9085 2.04289 9.77188C2.0506 9.68723 2.14405 9.67208 2.25528 9.68155C7.58512 9.67078 9.12344 9.36395 10.8593 11.4225C11.8896 12.6443 12.0584 14.8298 11.8889 13.2363C11.3701 8.36163 7.06891 8.91984 4.73681 8.91768C2.11473 8.9152 2.03146 8.94583 2.0231 8.79516C2.02081 8.75369 1.95361 8.30507 2.12583 8.28613C2.2641 8.26366 6.69089 8.2813 7.08785 8.28417C7.58787 8.28789 11.1593 8.31415 12.2565 11.7987C12.2797 11.8724 12.473 12.9122 12.5515 12.2537C12.6217 11.6646 13.5449 8.8414 16.821 8.35157C17.2756 8.28358 17.6868 8.22206 22.5659 8.28789C22.7649 8.29057 22.7734 8.91513 22.5662 8.91696C18.1577 8.95608 15.6722 8.48232 13.9735 10.5856C12.9107 11.9013 13.0201 13.5629 13.0278 13.5682C13.2377 13.7133 13.102 11.9246 15.0069 10.5205C16.318 9.55407 17.4286 9.66588 22.4473 9.6758C22.6599 9.67626 22.6722 9.84352 22.672 9.90472C22.6715 10.0131 22.6456 10.313 22.5672 10.315C18.3011 10.4211 15.7776 9.69677 14.2312 12.2089C13.5118 13.3775 13.5141 15.5931 13.8209 14.1546C14.1396 12.6604 15.7961 11.1285 17.6687 11.1009C18.0695 11.0951 22.5575 11.0284 22.6341 11.1595C22.6904 11.2557 22.6847 11.6579 22.5773 11.7174C17.4805 11.71 16.2387 11.4128 14.8794 13.2539C14.2284 14.1356 14.0867 15.5163 14.1515 15.7183C14.1927 15.8464 15.6536 19.1565 15.8831 19.7795C16.0486 20.229 16.1185 19.606 17.1689 17.4291C17.7728 16.1776 19.2407 12.8899 19.3696 12.8585C19.4207 12.846 21.7098 12.8472 21.9133 12.8473C22.3536 12.8475 22.3289 12.9492 22.3165 12.9808C22.1381 13.4379 17.2345 23.5408 16.7896 24.4576C16.7306 24.579 16.4411 24.5496 15.3825 24.5474C15.1669 24.5469 15.2187 24.4372 13.3399 20.6927C13.3085 20.63 13.3118 20.6319 12.9497 19.9074C12.4569 18.9213 12.4603 18.9115 12.4413 18.913C12.4152 18.9151 12.4331 18.936 12.2551 19.1825C11.9426 18.85 12.0657 18.7562 10.7126 15.6885Z" fill="white"/>
<path fill-rule="evenodd" clip-rule="evenodd" d="M10.7127 15.689C12.2786 18.6268 12.015 18.1144 12.4198 18.9304C12.1957 19.3582 12.0818 19.5969 9.80272 24.2614C9.62553 24.6241 9.41432 24.5604 8.39391 24.5481C8.08493 24.4641 7.8551 23.959 7.8551 23.959C7.8551 23.959 2.3883 12.9633 2.52676 12.8644C2.5504 12.8474 5.55494 12.8481 5.58008 12.8616C5.75609 12.9563 8.75005 19.7388 8.85272 19.7397C8.95146 19.7406 10.5705 16.016 10.7127 15.689Z" fill="white"/>
<path fill-rule="evenodd" clip-rule="evenodd" d="M14.4084 7.69529C10.6899 10.1799 7.50259 4.88114 10.8902 2.68064C13.4203 1.0371 16.8054 3.85178 15.231 6.76083C14.9311 7.31519 14.8736 7.26633 14.4084 7.69529Z" fill="white"/>
<path d="M26.205 22.7402C25.4875 22.7402 24.8416 22.5833 24.2676 22.2693C23.6935 21.9464 23.2405 21.4934 22.9086 20.9104C22.5857 20.3274 22.4243 19.6546 22.4243 18.8922C22.4243 18.1297 22.5902 17.457 22.9221 16.874C23.2629 16.2909 23.7249 15.8424 24.3079 15.5285C24.891 15.2056 25.5413 15.0441 26.2589 15.0441C26.9764 15.0441 27.6268 15.2056 28.2098 15.5285C28.7928 15.8424 29.2503 16.2909 29.5822 16.874C29.923 17.457 30.0935 18.1297 30.0935 18.8922C30.0935 19.6546 29.9185 20.3274 29.5687 20.9104C29.2279 21.4934 28.7614 21.9464 28.1694 22.2693C27.5864 22.5833 26.9316 22.7402 26.205 22.7402ZM26.205 21.0988C26.5459 21.0988 26.8643 21.018 27.1603 20.8566C27.4653 20.6861 27.7075 20.435 27.8869 20.1031C28.0663 19.7712 28.156 19.3676 28.156 18.8922C28.156 18.1836 27.9676 17.6409 27.5909 17.2642C27.2231 16.8785 26.7701 16.6856 26.2319 16.6856C25.6938 16.6856 25.2408 16.8785 24.873 17.2642C24.5142 17.6409 24.3348 18.1836 24.3348 18.8922C24.3348 19.6008 24.5097 20.148 24.8596 20.5337C25.2184 20.9104 25.6668 21.0988 26.205 21.0988ZM33.3588 16.3223C33.601 15.9277 33.915 15.6182 34.3007 15.394C34.6954 15.1697 35.1438 15.0576 35.6462 15.0576V17.0354H35.1483C34.5563 17.0354 34.1078 17.1745 33.8029 17.4525C33.5069 17.7306 33.3588 18.215 33.3588 18.9056V22.6191H31.4752V15.1652H33.3588V16.3223ZM41.328 22.6191L38.7986 19.4438V22.6191H36.9149V12.6626H38.7986V18.3271L41.3011 15.1652H43.7499L40.4669 18.9056L43.7768 22.6191H41.328Z" fill="white"/>
<path d="M47.625 22.7402C47.0151 22.7402 46.4679 22.6326 45.9835 22.4173C45.4992 22.1931 45.1135 21.8926 44.8264 21.5159C44.5484 21.1391 44.3959 20.722 44.369 20.2646H46.2661C46.302 20.5516 46.441 20.7893 46.6832 20.9777C46.9343 21.166 47.2438 21.2602 47.6116 21.2602C47.9704 21.2602 48.2484 21.1885 48.4458 21.0449C48.6521 20.9014 48.7552 20.7175 48.7552 20.4933C48.7552 20.2511 48.6296 20.0717 48.3785 19.9551C48.1363 19.8295 47.7461 19.695 47.2079 19.5515C46.6518 19.4169 46.1943 19.2779 45.8355 19.1344C45.4857 18.9908 45.1807 18.7711 44.9206 18.4751C44.6695 18.1791 44.5439 17.7799 44.5439 17.2776C44.5439 16.865 44.6605 16.4883 44.8937 16.1474C45.1359 15.8066 45.4767 15.5375 45.9163 15.3401C46.3648 15.1428 46.8895 15.0441 47.4905 15.0441C48.3785 15.0441 49.0871 15.2684 49.6163 15.7169C50.1455 16.1564 50.4371 16.7529 50.4909 17.5063H48.6879C48.661 17.2103 48.5355 16.9771 48.3112 16.8067C48.0959 16.6273 47.8044 16.5376 47.4367 16.5376C47.0958 16.5376 46.8312 16.6004 46.6428 16.726C46.4634 16.8515 46.3737 17.0265 46.3737 17.2507C46.3737 17.5019 46.4993 17.6947 46.7505 17.8293C47.0016 17.9548 47.3918 18.0849 47.921 18.2194C48.4592 18.354 48.9032 18.493 49.253 18.6365C49.6029 18.7801 49.9033 19.0043 50.1545 19.3093C50.4146 19.6053 50.5492 20 50.5581 20.4933C50.5581 20.9238 50.4371 21.3095 50.1949 21.6504C49.9617 21.9913 49.6208 22.2603 49.1723 22.4577C48.7328 22.6461 48.217 22.7402 47.625 22.7402ZM53.9881 16.2416C54.2302 15.9007 54.5621 15.6182 54.9837 15.394C55.4143 15.1607 55.9031 15.0441 56.4503 15.0441C57.0871 15.0441 57.6612 15.2011 58.1725 15.515C58.6927 15.829 59.1008 16.2775 59.3968 16.8605C59.7018 17.4346 59.8543 18.1028 59.8543 18.8653C59.8543 19.6277 59.7018 20.3049 59.3968 20.8969C59.1008 21.48 58.6927 21.9329 58.1725 22.2559C57.6612 22.5788 57.0871 22.7402 56.4503 22.7402C55.9031 22.7402 55.4187 22.6281 54.9972 22.4039C54.5845 22.1796 54.2482 21.8971 53.9881 21.5562V26.1712H52.1044V15.1652H53.9881V16.2416ZM57.9303 18.8653C57.9303 18.4168 57.8361 18.0311 57.6477 17.7082C57.4683 17.3763 57.2262 17.1251 56.9212 16.9547C56.6252 16.7843 56.3023 16.6991 55.9524 16.6991C55.6116 16.6991 55.2887 16.7888 54.9837 16.9682C54.6877 17.1386 54.4455 17.3897 54.2571 17.7216C54.0777 18.0535 53.9881 18.4437 53.9881 18.8922C53.9881 19.3407 54.0777 19.7309 54.2571 20.0627C54.4455 20.3946 54.6877 20.6503 54.9837 20.8297C55.2887 21.0001 55.6116 21.0853 55.9524 21.0853C56.3023 21.0853 56.6252 20.9956 56.9212 20.8162C57.2262 20.6368 57.4683 20.3812 57.6477 20.0493C57.8361 19.7174 57.9303 19.3227 57.9303 18.8653ZM65.421 15.0576C65.9861 15.0576 66.4884 15.1832 66.9279 15.4343C67.3674 15.6765 67.7083 16.0398 67.9505 16.5241C68.2016 16.9996 68.3272 17.5736 68.3272 18.2464V22.6191H66.4436V18.502C66.4436 17.91 66.2956 17.457 65.9995 17.1431C65.7035 16.8202 65.2999 16.6587 64.7886 16.6587C64.2684 16.6587 63.8558 16.8202 63.5508 17.1431C63.2548 17.457 63.1068 17.91 63.1068 18.502V22.6191H61.2231V12.6626H63.1068V16.0936C63.349 15.7707 63.6719 15.5195 64.0755 15.3401C64.4792 15.1518 64.9277 15.0576 65.421 15.0576ZM77.0477 18.7307C77.0477 18.9998 77.0297 19.242 76.9938 19.4573H71.5447C71.5895 19.9955 71.7779 20.4171 72.1098 20.722C72.4417 21.027 72.8498 21.1795 73.3342 21.1795C74.0338 21.1795 74.5316 20.879 74.8276 20.278H76.8593C76.644 20.9956 76.2314 21.5876 75.6215 22.054C75.0115 22.5115 74.2625 22.7402 73.3745 22.7402C72.6569 22.7402 72.0111 22.5833 71.437 22.2693C70.8719 21.9464 70.4279 21.4934 70.105 20.9104C69.7911 20.3274 69.6341 19.6546 69.6341 18.8922C69.6341 18.1208 69.7911 17.4436 70.105 16.8605C70.419 16.2775 70.8585 15.829 71.4236 15.515C71.9887 15.2011 72.639 15.0441 73.3745 15.0441C74.0831 15.0441 74.7155 15.1966 75.2716 15.5016C75.8367 15.8066 76.2718 16.2416 76.5767 16.8067C76.8907 17.3628 77.0477 18.0042 77.0477 18.7307ZM75.0967 18.1925C75.0878 17.7082 74.9128 17.3225 74.572 17.0354C74.2311 16.7394 73.814 16.5914 73.3207 16.5914C72.8543 16.5914 72.4596 16.7349 72.1367 17.022C71.8227 17.3 71.6299 17.6902 71.5581 18.1925H75.0967ZM80.3062 16.3223C80.5484 15.9277 80.8624 15.6182 81.2481 15.394C81.6427 15.1697 82.0912 15.0576 82.5935 15.0576V17.0354H82.0957C81.5037 17.0354 81.0552 17.1745 80.7502 17.4525C80.4542 17.7306 80.3062 18.215 80.3062 18.9056V22.6191H78.4226V15.1652H80.3062V16.3223ZM90.7915 18.7307C90.7915 18.9998 90.7735 19.242 90.7376 19.4573H85.2885C85.3333 19.9955 85.5217 20.4171 85.8536 20.722C86.1855 21.027 86.5936 21.1795 87.078 21.1795C87.7776 21.1795 88.2754 20.879 88.5714 20.278H90.6031C90.3878 20.9956 89.9752 21.5876 89.3653 22.054C88.7553 22.5115 88.0063 22.7402 87.1183 22.7402C86.4007 22.7402 85.7549 22.5833 85.1808 22.2693C84.6157 21.9464 84.1717 21.4934 83.8488 20.9104C83.5349 20.3274 83.3779 19.6546 83.3779 18.8922C83.3779 18.1208 83.5349 17.4436 83.8488 16.8605C84.1628 16.2775 84.6023 15.829 85.1674 15.515C85.7325 15.2011 86.3828 15.0441 87.1183 15.0441C87.8269 15.0441 88.4593 15.1966 89.0154 15.5016C89.5805 15.8066 90.0156 16.2416 90.3205 16.8067C90.6345 17.3628 90.7915 18.0042 90.7915 18.7307ZM88.8405 18.1925C88.8315 17.7082 88.6566 17.3225 88.3158 17.0354C87.9749 16.7394 87.5578 16.5914 87.0645 16.5914C86.5981 16.5914 86.2034 16.7349 85.8805 17.022C85.5665 17.3 85.3737 17.6902 85.3019 18.1925H88.8405Z" fill="white"/>
</svg>
